<?xml version="1.0" encoding="UTF-8"?>
<svg width="1000px" height="500px" viewBox="0 0 1000 500" version="1.1" xmlns="http://www.w3.org/2000/svg" xmlns:xlink="http://www.w3.org/1999/xlink">
    <title>论文软件</title>
    <defs>
        <linearGradient x1="6.06656986%" y1="34.7369994%" x2="106.06524%" y2="56.9057213%" id="linearGradient-1">
            <stop stop-color="#FFFFFF" stop-opacity="0" offset="0%"></stop>
            <stop stop-color="#FFFFFF" stop-opacity="0.5412" offset="50.71%"></stop>
            <stop stop-color="#FFFFFF" offset="100%"></stop>
        </linearGradient>
    </defs>
    <g id="论文软件" stroke="none" stroke-width="1" fill="none" fill-rule="evenodd">
        <g id="未命名" transform="translate(-58.000000, -222.000000)" fill-rule="nonzero">
            <g id="pattern" transform="translate(0.333333, 0.000000)">
                <g id="Mask" transform="translate(129.205551, 220.896000)" fill="#2496ED">
                    <path d="M443.407884,379.9718 L878.415125,228.054667 L878.415125,0.0511333333 L0,0.0511333333 L1.82622687,228.054667 L435.737731,379.9718 C438.111826,381.5058 441.033789,381.5058 443.407884,379.9718 Z" id="path-1_1_"></path>
                </g>
                <g id="编组" opacity="0.5">
                    <g>
                        <polygon id="Fill-1" fill="#8F9DAA" points="732.68222 315.3904 550.287812 197.4258 550.287812 197.374667 245.03399 395.056133 244.988335 552.955867 366.888978 474.057133 366.888978 371.892733 366.888978 371.6882 550.013878 253.212267 750.259654 382.630733 1036.65768 197.374667 1036.65768 118.7316"></polygon>
                        <polygon id="Fill-4" fill="#8F9DAA" points="732.271319 236.900733 854.400241 158.257667 854.400241 79.7168667 671.275342 197.630333"></polygon>
                        <polygon id="Fill-5" fill="#F1F1F3" points="488.561344 79.3589333 488.561344 79.4100667 610.32502 158.053133 549.46601 197.4258 549.46601 197.476933 732.180008 315.5438 1036.65768 118.7316 1036.65768 118.680467 975.753017 79.3078 853.943685 158.053133 732.180008 236.747333 671.320998 197.4258 853.943685 79.4100667 853.943685 79.3078 793.039019 39.9862667 671.275342 118.680467 671.229686 118.680467 610.370676 79.3078 610.370676 79.3589333 610.370676 79.3078 610.370676 79.3078 671.275342 39.9862667 671.275342 39.9351333 610.370676 0.562466667"></polygon>
                        <polygon id="Fill-6" fill="#ABBCCC" points="366.295455 236.3894 427.474055 196.914467 427.656677 196.761067 366.523733 157.286133 366.523733 157.286133"></polygon>
                        <path d="M549.46601,333.747267 L490.889783,371.739333 L549.46601,333.747267 Z" id="Fill-7" fill="#2496ED"></path>
                        <polygon id="Fill-8" fill="#8F9DAA" points="366.797667 158.3088 244.988335 237.258667 244.988335 316.055133 366.797667 236.951867"></polygon>
                        <polygon id="Fill-9" fill="#ABBCCC" points="244.851368 315.441533 244.988335 315.5438 244.988335 236.900733 61.3612228 118.7316 61.3612228 197.476933"></polygon>
                        <polygon id="Fill-12" fill="#ABBCCC" points="0 394.6982 244.988335 552.955867 244.988335 395.005 0.136967015 236.900733"></polygon>
                        <path d="M244.394811,0.0511333333 L61.0872888,118.680467 L61.0872888,118.833867 L61.0872888,118.833867 L244.349155,237.514333 L366.478077,158.4622 L366.752011,158.3088 L427.611022,197.7326 L427.428399,197.834867 L244.394811,316.515333 L244.257844,316.413067 L61.0872888,197.988267 L0,237.412067 L244.440467,395.720867 L549.922566,197.681467 L549.968222,197.681467 L489.154867,158.359933 L244.394811,0.0511333333 Z M185.727273,118.782733 L244.349155,80.7906667 L302.971038,118.782733 L244.349155,156.7748 L185.727273,118.782733 Z" id="Fill-13" fill="#F1F1F3"></path>
                        <polygon id="Fill-14" fill="#8F9DAA" points="549.46601 648.7286 610.279364 609.100267 610.279364 530.099267 671.275342 490.522067 671.229686 490.522067 671.229686 411.879 549.46601 490.828867"></polygon>
                        <polygon id="Fill-15" fill="#8F9DAA" points="671.594932 569.471933 671.594932 648.4218 610.370676 687.947867 610.370676 766.948867 732.864843 687.896733 732.864843 608.946867 732.864843 608.895733 855.35901 529.894733 855.35901 450.893733"></polygon>
                        <polygon id="Fill-16" fill="#ABBCCC" points="671.320998 489.9596 732.636565 450.331267 671.549276 410.8052 671.275342 411.009733 671.275342 489.908467"></polygon>
                        <polygon id="Fill-17" fill="#ABBCCC" points="610.370676 608.793467 671.731899 648.217267 671.731899 569.471933 610.370676 530.048133"></polygon>
                        <path d="M366.295455,473.5458 L366.295455,608.282133 L610.827233,766.437533 L610.827233,687.3854 L549.785599,647.910467 L549.785599,489.857333 L366.295455,371.228 L366.295455,473.5458 Z M428.706758,487.249533 L491.02675,527.5426 L472.855792,539.3544 L491.072405,527.5426 L491.072405,527.593733 L491.118061,527.644867 L491.072405,527.696 L491.163717,608.282133 L491.118061,608.231 L428.752414,568.0402 L428.798069,567.989067 L461.030973,547.075533 L428.706758,567.937933 L428.706758,487.249533 L428.706758,487.249533 Z" id="Fill-18" fill="#ABBCCC"></path>
                        <polygon id="Fill-19" fill="#2496ED" points="490.889783 528.0028 490.935438 527.951667 490.889783 527.951667"></polygon>
                        <polygon id="Fill-20" fill="#8F9DAA" points="490.433226 526.877867 428.15889 486.840467 428.15889 567.017533 460.43745 546.2574 472.262269 538.638533"></polygon>
                        <polygon id="Fill-21" fill="#F1F1F3" points="490.341915 528.0028 490.341915 527.951667 472.170957 539.763467 460.346138 547.4846 428.15889 568.398133 428.15889 568.398133 490.38757 608.640067 490.433226 608.640067 490.341915 528.053933"></polygon>
                        <polygon id="Fill-22" fill="#F1F1F3" points="610.279364 687.794467 671.275342 648.217267 610.279364 608.640067 549.46601 648.319533"></polygon>
                        <path d="M549.329043,409.066667 L490.752816,371.125733 L549.329043,333.1848 L607.90527,371.125733 L549.329043,409.066667 Z M366.295455,371.0746 L366.295455,371.228 L549.283387,489.755067 L671.229686,410.754067 L671.50362,410.600667 L732.271319,449.973333 L610.188053,529.025467 L671.229686,568.551533 L854.400241,449.871067 L749.437852,381.966 L549.283387,252.4964 L366.295455,371.0746 Z" id="Fill-23" fill="#F1F1F3"></path>
                        <polygon id="Fill-24" fill="#8F9DAA" points="490.889783 371.790467 549.46601 409.782533 549.46601 333.747267"></polygon>
                        <polygon id="Fill-25" fill="#ABBCCC" points="549.46601 409.782533 549.46601 409.782533 608.042237 371.790467 549.46601 333.747267"></polygon>
                    </g>
                </g>
                <path d="M691.089903,667.699067 L1134.81738,379.9718 L1134.81738,206.220733 L238.003017,206.220733 L238.003017,380.022933 L681.776146,667.7502 C684.652454,669.591 688.213596,669.591 691.089903,667.699067 Z" id="overlay" fill="url(#linearGradient-1)" opacity="0.86"></path>
            </g>
            <polyline id="overlay_2_" fill="#2496ED" opacity="0.86" points="578.926941 754 1108.33333 749.803659 1108.33333 203 38.3333333 203 38.3333333 754"></polyline>
        </g>
        <g id="docker-1" transform="translate(124.000000, 159.000000)" fill="#061D2F" fill-rule="nonzero">
            <path d="M50.7832385,146.647482 C43.5845835,146.647482 37.0403518,140.755396 37.0403518,133.553957 C37.0403518,126.352518 42.9301604,120.460432 50.7832385,120.460432 C58.6363166,120.460432 64.5261252,126.352518 64.5261252,133.553957 C64.5261252,140.755396 57.9818934,146.647482 50.7832385,146.647482 Z M219.624418,75.2877698 C218.315572,64.8129496 211.77134,56.3021583 203.263839,49.7553957 L199.991723,47.1366906 L197.37403,50.4100719 C192.138645,56.3021583 190.175375,66.7769784 190.829798,74.6330935 C191.484221,80.5251799 193.447491,86.4172662 196.719607,91 C194.101914,92.3093525 190.829798,93.618705 188.212106,94.9280576 C182.322297,96.8920863 176.432488,97.5467626 170.54268,97.5467626 L1.04707708,97.5467626 L0.392653906,101.47482 C-0.916192447,113.913669 1.04707708,127.007194 6.28246249,138.791367 L8.9001552,143.374101 L8.9001552,144.028777 C24.6063114,170.215827 52.746508,182 83.5043973,182 C142.402483,182 190.829798,156.467626 213.734609,101.47482 C228.786342,102.129496 243.838076,98.2014388 251.03673,83.7985612 L253,80.5251799 L249.727884,78.5611511 C241.220383,73.323741 229.440766,72.6690647 219.624418,75.2877698 L219.624418,75.2877698 Z M135.203828,64.8129496 L109.681324,64.8129496 L109.681324,90.3453237 L135.203828,90.3453237 L135.203828,64.8129496 Z M135.203828,32.7338129 L109.681324,32.7338129 L109.681324,58.2661871 L135.203828,58.2661871 L135.203828,32.7338129 Z M135.203828,0 L109.681324,0 L109.681324,25.5323741 L135.203828,25.5323741 L135.203828,0 Z M166.616141,64.8129496 L141.093637,64.8129496 L141.093637,90.3453237 L166.616141,90.3453237 L166.616141,64.8129496 Z M71.7247801,64.8129496 L46.2022763,64.8129496 L46.2022763,90.3453237 L71.7247801,90.3453237 L71.7247801,64.8129496 L71.7247801,64.8129496 Z M103.791516,64.8129496 L78.2690119,64.8129496 L78.2690119,90.3453237 L103.791516,90.3453237 L103.791516,64.8129496 Z M40.3124677,64.8129496 L14.7899638,64.8129496 L14.7899638,90.3453237 L40.3124677,90.3453237 L40.3124677,64.8129496 L40.3124677,64.8129496 Z M103.791516,32.7338129 L78.2690119,32.7338129 L78.2690119,58.2661871 L103.791516,58.2661871 L103.791516,32.7338129 Z M71.7247801,32.7338129 L46.2022763,32.7338129 L46.2022763,58.2661871 L71.7247801,58.2661871 L71.7247801,32.7338129 L71.7247801,32.7338129 Z" id="SVGID_1_"></path>
            <path d="M661.832454,130.386454 C672.978892,120.558108 684.12533,111.384984 695.271768,101.556638 C699.205805,98.280523 703.139842,95.0044076 707.073879,91.0730691 C703.795515,87.1417307 699.205805,84.5208384 694.616095,82.5551691 C686.092348,79.2790538 677.568602,80.5894999 669.044855,85.1760615 C658.55409,91.0730691 653.96438,100.901415 654.620053,112.695431 C654.620053,117.281992 655.931398,121.868554 658.55409,125.799892 C660.521108,127.765561 661.176781,129.076008 661.832454,130.386454 M674.94591,139.559577 C680.191293,141.525246 686.748021,141.525246 692.649077,140.2148 C695.271768,138.904354 703.139842,135.628238 705.762533,136.283461 L707.073879,136.283461 C709.040897,136.938684 710.352243,138.249131 711.007916,140.2148 C712.974934,144.146138 712.319261,148.077477 708.385224,150.043146 L707.073879,150.698369 C692.649077,159.216269 677.568602,157.905823 663.143799,150.043146 C656.587071,146.111807 651.341689,140.870023 647.407652,134.317792 L646.751979,133.007346 C637.572559,117.281992 638.883905,100.246192 649.37467,85.1760615 C652.653034,79.9342768 657.898417,76.0029384 663.143799,72.726823 L665.110818,71.4163769 C678.879947,63.5537 693.304749,64.208923 707.073879,70.7611538 C714.28628,74.6924922 720.843008,79.9342768 724.777045,87.1417307 L725.432718,88.4521768 C728.711082,93.6939614 724.777045,98.280523 720.187335,101.556638 L706.418206,113.350654 C694.616095,122.523777 684.781003,131.041677 674.94591,139.559577 L674.94591,139.559577 Z M781.82058,67.4850384 L783.131926,67.4850384 C787.721636,67.4850384 791,70.7611538 791,75.3477153 C791,81.8999461 785.098945,83.2103922 779.853562,83.2103922 C773.296834,83.2103922 766.740106,87.1417307 762.150396,91.7282922 C756.24934,97.6252999 753.626649,104.832754 753.626649,112.695431 L753.626649,149.387923 C753.626649,153.319261 751.003958,157.2506 746.414248,157.2506 L745.102902,157.2506 C740.513193,157.2506 737.890501,153.974484 737.890501,149.387923 L737.890501,110.729761 C737.890501,95.6596307 745.102902,83.8656153 756.905013,75.3477153 C765.42876,70.1059307 773.296834,67.4850384 781.82058,67.4850384 L781.82058,67.4850384 Z M594.298153,93.0387384 L612.001319,75.3477153 C613.968338,74.0372692 619.869393,66.8298153 622.492084,66.8298153 L625.114776,66.8298153 C628.39314,67.4850384 631.015831,69.4507076 631.015831,73.3820461 L631.015831,74.6924922 C631.015831,77.3133845 627.737467,79.9342768 626.426121,81.8999461 C623.147757,85.8312845 619.21372,89.1073999 615.935356,93.0387384 L597.576517,111.384984 L621.180739,134.973015 L627.737467,141.525246 L630.360158,144.146138 C631.015831,145.456584 631.671504,146.111807 631.671504,147.422254 L631.671504,149.387923 C631.015831,152.664038 628.39314,155.284931 625.114776,155.284931 L623.80343,155.284931 C621.180739,155.284931 618.558047,152.664038 616.591029,150.698369 C613.312665,147.422254 609.378628,144.146138 606.100264,140.2148 L594.298153,129.076008 L594.298153,147.422254 C594.298153,151.353592 591.675462,155.284931 587.085752,155.284931 L585.774406,155.284931 C581.184697,155.284931 578.562005,152.008815 578.562005,147.422254 L578.562005,46.5179 C578.562005,42.5865615 581.184697,39.3104462 585.774406,39.3104462 L587.085752,39.3104462 C591.675462,39.3104462 594.298153,42.5865615 594.298153,46.5179 L594.298153,93.0387384 L594.298153,93.0387384 Z M545.778364,83.2103922 C543.811346,81.8999461 539.221636,81.8999461 536.598945,81.8999461 C524.141161,81.244723 514.961741,88.4521768 509.716359,99.5909691 C507.74934,103.522308 507.093668,107.453646 507.093668,112.040208 C507.093668,125.144669 513.650396,134.317792 525.452507,139.559577 C529.386544,141.525246 535.287599,142.180469 539.877309,142.180469 C543.811346,142.180469 549.712401,139.559577 552.990765,138.249131 L556.269129,138.249131 C559.547493,138.904354 562.170185,140.870023 562.170185,144.801361 L562.170185,146.111807 C562.170185,155.284931 545.122691,157.2506 539.221636,157.905823 C516.92876,159.216269 499.881266,146.767031 493.324538,125.799892 C492.013193,121.868554 492.013193,118.592438 492.013193,114.6611 L492.013193,111.384984 C492.013193,95.0044076 499.881266,81.8999461 514.306069,74.0372692 C520.862797,70.1059307 528.075198,68.1402615 535.943272,68.1402615 L539.221636,68.1402615 C547.08971,68.1402615 554.957784,70.1059307 561.514512,74.6924922 L562.170185,75.3477153 L562.825858,76.0029384 C563.48153,77.3133845 564.137203,78.6238307 564.137203,79.9342768 L564.137203,81.244723 C564.137203,85.1760615 561.514512,87.1417307 557.580475,87.7969538 L556.924802,87.7969538 C552.335092,86.4865076 547.08971,83.8656153 545.778364,83.2103922 Z M408.087071,111.384984 C408.087071,122.523777 413.988127,131.041677 423.167546,136.938684 C427.757256,139.559577 433.002639,140.870023 438.248021,140.870023 C449.394459,140.870023 457.918206,134.973015 463.819261,125.799892 C466.441953,121.213331 467.753298,115.971546 467.753298,110.729761 C467.753298,100.246192 462.507916,91.7282922 453.984169,85.8312845 C449.394459,82.5551691 443.493404,81.244723 438.248021,81.244723 C425.790237,81.244723 416.610818,87.7969538 411.365435,98.935746 C408.087071,103.522308 408.087071,107.453646 408.087071,111.384984 L408.087071,111.384984 Z M435.62533,66.8298153 L437.592348,66.8298153 C455.295515,66.8298153 468.408971,75.3477153 476.932718,90.4178461 C480.211082,96.3148537 482.1781,102.867084 482.1781,110.074538 L482.1781,113.350654 C482.1781,129.731231 474.310026,142.835692 459.885224,150.698369 C453.328496,154.629707 446.116095,156.595377 438.248021,156.595377 L434.969657,156.595377 C418.577836,156.595377 405.46438,148.7327 397.596306,134.317792 C393.662269,127.765561 391.695251,120.558108 391.695251,112.695431 L391.695251,109.419315 C391.695251,93.0387384 399.563325,79.9342768 413.988127,72.0715999 C421.200528,68.7954846 427.757256,66.8298153 435.62533,66.8298153 L435.62533,66.8298153 Z M308.424802,111.384984 C308.424802,123.179 314.325858,132.352123 324.816623,137.593908 C328.75066,139.559577 333.340369,140.870023 338.585752,140.870023 C350.387863,140.870023 358.911609,135.628238 364.812665,125.799892 C367.435356,121.213331 368.746702,115.971546 368.746702,110.729761 C368.746702,100.246192 364.156992,92.3835153 355.633245,86.4865076 C350.387863,83.2103922 345.14248,81.244723 338.585752,81.244723 C326.127968,81.244723 316.948549,87.7969538 311.703166,98.935746 C309.736148,103.522308 308.424802,107.453646 308.424802,111.384984 L308.424802,111.384984 Z M368.746702,77.9686076 L368.746702,45.8626769 C368.746702,41.9313385 371.369393,38 375.959103,38 L377.270449,38 C381.860158,38 384.48285,41.2761154 384.48285,45.8626769 L384.48285,113.350654 C384.48285,129.731231 376.614776,142.835692 362.189974,150.698369 C355.633245,154.629707 348.420844,156.595377 340.55277,156.595377 L337.274406,156.595377 C320.882586,156.595377 307.769129,148.7327 299.901055,134.317792 C295.967018,127.765561 294,120.558108 294,112.695431 L294,109.419315 C294,93.0387384 301.868074,79.9342768 316.292876,72.0715999 C322.849604,68.1402615 330.062005,66.1745923 337.930079,66.1745923 L341.208443,66.1745923 C351.043536,66.8298153 360.878628,70.7611538 368.746702,77.9686076 L368.746702,77.9686076 Z" id="docker_2_"></path>
        </g>
    </g>
</svg>